<svg width="226" height="180" viewBox="0 0 226 180" fill="none" xmlns="http://www.w3.org/2000/svg">
<rect width="226" height="180" fill="#1E1E1E"/>
<path d="M0 45C0 20.1472 20.1472 0 45 0H225.5V90H45C20.1472 90 0 69.8528 0 45Z" fill="url(#paint0_linear_0_1)"/>
<path d="M70.2579 56V33.6H76.9139L82.9939 53.696H83.5059V33.6H86.9299V56H80.2739L74.1939 35.872H73.6819V56H70.2579ZM91.6016 56V33.6H95.0576V56H91.6016ZM107.343 56.448C105.657 56.448 104.164 56.1493 102.863 55.552C101.561 54.9547 100.537 54.08 99.7906 52.928C99.0653 51.7547 98.7026 50.336 98.7026 48.672V47.872H102.127V48.672C102.127 50.2507 102.596 51.4347 103.535 52.224C104.495 53.0133 105.764 53.408 107.343 53.408C108.943 53.408 110.148 53.0773 110.959 52.416C111.769 51.7333 112.175 50.8587 112.175 49.792C112.175 49.088 111.983 48.512 111.599 48.064C111.215 47.616 110.671 47.264 109.967 47.008C109.263 46.7307 108.42 46.4747 107.439 46.24L106.255 45.952C104.825 45.6107 103.577 45.1947 102.511 44.704C101.465 44.192 100.655 43.52 100.079 42.688C99.5026 41.856 99.2146 40.7893 99.2146 39.488C99.2146 38.1653 99.5346 37.0347 100.175 36.096C100.836 35.1573 101.743 34.432 102.895 33.92C104.047 33.408 105.401 33.152 106.959 33.152C108.516 33.152 109.903 33.4187 111.119 33.952C112.356 34.4853 113.327 35.2747 114.031 36.32C114.735 37.3653 115.087 38.6773 115.087 40.256V41.408H111.663V40.256C111.663 39.296 111.46 38.5173 111.055 37.92C110.671 37.3227 110.127 36.8853 109.423 36.608C108.719 36.3307 107.897 36.192 106.959 36.192C105.593 36.192 104.527 36.48 103.759 37.056C103.012 37.6107 102.639 38.3893 102.639 39.392C102.639 40.0747 102.799 40.64 103.119 41.088C103.46 41.5147 103.951 41.8667 104.591 42.144C105.231 42.4213 106.031 42.6667 106.991 42.88L108.175 43.168C109.625 43.488 110.905 43.904 112.015 44.416C113.124 44.9067 113.999 45.5787 114.639 46.432C115.279 47.2853 115.599 48.384 115.599 49.728C115.599 51.072 115.257 52.2453 114.575 53.248C113.913 54.2507 112.964 55.04 111.727 55.616C110.489 56.1707 109.028 56.448 107.343 56.448ZM127.547 56.448C124.816 56.448 122.651 55.68 121.051 54.144C119.451 52.5867 118.651 50.3467 118.651 47.424V42.176C118.651 39.2533 119.451 37.024 121.051 35.488C122.651 33.9307 124.816 33.152 127.547 33.152C130.235 33.152 132.304 33.8987 133.755 35.392C135.227 36.8853 135.963 38.9227 135.963 41.504V41.696H132.539V41.408C132.539 39.8933 132.123 38.656 131.291 37.696C130.48 36.736 129.232 36.256 127.547 36.256C125.84 36.256 124.507 36.7787 123.547 37.824C122.587 38.848 122.107 40.2773 122.107 42.112V47.488C122.107 49.3013 122.587 50.7307 123.547 51.776C124.507 52.8213 125.84 53.344 127.547 53.344C129.232 53.344 130.48 52.864 131.291 51.904C132.123 50.9227 132.539 49.6853 132.539 48.192V47.648H135.963V48.096C135.963 50.6773 135.227 52.7147 133.755 54.208C132.304 55.7013 130.235 56.448 127.547 56.448ZM139.789 56V33.6H143.245V43.2H152.653V33.6H156.109V56H152.653V46.336H143.245V56H139.789ZM159.125 56L165.525 33.6H171.605L177.973 56H174.421L172.949 50.72H164.181L162.709 56H159.125ZM165.045 47.52H172.085L168.821 35.744H168.309L165.045 47.52ZM181.008 56V33.6H184.464V52.864H195.248V56H181.008Z" fill="white"/>
<path d="M78.5183 146.448C76.9183 146.448 75.4889 146.107 74.2303 145.424C72.9716 144.72 71.9796 143.696 71.2543 142.352C70.5289 141.008 70.1663 139.365 70.1663 137.424V132.176C70.1663 129.253 70.9663 127.024 72.5663 125.488C74.1663 123.931 76.3316 123.152 79.0623 123.152C81.7503 123.152 83.8196 123.888 85.2703 125.36C86.7209 126.811 87.4463 128.763 87.4463 131.216V131.376H84.0223V131.12C84.0223 130.203 83.8409 129.381 83.4783 128.656C83.1156 127.909 82.5716 127.323 81.8463 126.896C81.1209 126.469 80.1929 126.256 79.0623 126.256C77.3556 126.256 76.0223 126.779 75.0623 127.824C74.1023 128.848 73.6223 130.277 73.6223 132.112V137.488C73.6223 139.301 74.1023 140.741 75.0623 141.808C76.0223 142.853 77.3663 143.376 79.0943 143.376C80.8009 143.376 82.0489 142.907 82.8383 141.968C83.6276 141.029 84.0223 139.813 84.0223 138.32V137.904H78.0063V134.928H87.4463V146H84.2463V143.728H83.7343C83.5423 144.133 83.2543 144.549 82.8703 144.976C82.5076 145.403 81.9743 145.755 81.2703 146.032C80.5876 146.309 79.6703 146.448 78.5183 146.448ZM90.2345 146L96.6345 123.6H102.715L109.083 146H105.531L104.059 140.72H95.2905L93.8185 146H90.2345ZM96.1545 137.52H103.195L99.9305 125.744H99.4185L96.1545 137.52ZM120.126 146.448C118.356 146.448 116.83 146.128 115.55 145.488C114.292 144.848 113.31 143.931 112.606 142.736C111.924 141.52 111.582 140.048 111.582 138.32V123.6H115.07V138.416C115.07 139.995 115.508 141.211 116.382 142.064C117.257 142.917 118.505 143.344 120.126 143.344C121.748 143.344 122.996 142.917 123.87 142.064C124.745 141.211 125.182 139.995 125.182 138.416V123.6H128.638V138.32C128.638 140.048 128.297 141.52 127.614 142.736C126.932 143.931 125.95 144.848 124.67 145.488C123.39 146.128 121.876 146.448 120.126 146.448ZM138.493 146V126.736H131.613V123.6H148.829V126.736H141.949V146H138.493ZM148.078 146L154.478 123.6H160.558L166.926 146H163.374L161.902 140.72H153.134L151.662 146H148.078ZM153.998 137.52H161.038L157.774 125.744H157.262L153.998 137.52ZM169.961 146V123.6H176.457L181.353 143.696H181.865L186.761 123.6H193.257V146H189.897V126.032H189.385L184.521 146H178.697L173.833 126.032H173.321V146H169.961Z" fill="white"/>
<path d="M0 135C0 110.147 20.1472 90 45 90H225.5V180H45C20.1472 180 0 159.853 0 135V135Z" fill="url(#paint1_linear_0_1)"/>
<defs>
<linearGradient id="paint0_linear_0_1" x1="112.75" y1="0" x2="112.75" y2="90" gradientUnits="userSpaceOnUse">
<stop stop-color="white"/>
<stop offset="1" stop-opacity="0"/>
</linearGradient>
<linearGradient id="paint1_linear_0_1" x1="112.75" y1="90" x2="112.75" y2="180" gradientUnits="userSpaceOnUse">
<stop/>
<stop offset="1" stop-color="white" stop-opacity="0"/>
</linearGradient>
</defs>
</svg>
